<?xml version="1.0" encoding="UTF-8"?>
<!DOCTYPE svg PUBLIC "-//W3C//DTD SVG 1.1//EN" "http://www.w3.org/Graphics/SVG/1.1/DTD/svg11.dtd">
<!-- Creator: CorelDRAW 2019 (64-Bit) -->
<svg xmlns="http://www.w3.org/2000/svg" xml:space="preserve" width="5.53402in" height="5.93306in" version="1.1" style="shape-rendering:geometricPrecision; text-rendering:geometricPrecision; image-rendering:optimizeQuality; fill-rule:evenodd; clip-rule:evenodd"
viewBox="0 0 9395.82 10073.32"
 xmlns:xlink="http://www.w3.org/1999/xlink">
 <defs>
  <style type="text/css">
   <![CDATA[
    .fil0 {fill:#1C1B17}
   ]]>
  </style>
 </defs>
 <g id="Слой_x0020_1">
  <metadata id="CorelCorpID_0Corel-Layer"/>
  <path class="fil0" d="M8143.02 1252.8c-818.13,-843.71 -1981.42,-1252.8 -3451.51,-1252.8 -1470.09,0 -2620.59,421.88 -3451.51,1252.8 -830.92,830.91 -1240,2070.88 -1240,3707.17 0,1649.05 409.08,2914.64 1214.42,3783.89 805.38,894.84 1955.88,1329.46 3451.51,1329.46 1495.67,0 2658.97,-434.62 3477.1,-1303.88 843.71,-869.29 1252.8,-2134.83 1252.8,-3783.88 0,-1661.88 -409.08,-2914.63 -1252.8,-3732.76zm-2514.81 3030.99c108.55,539.29 99.12,508.19 -156.34,470.6 29.81,196.86 80.43,322.05 84.18,517.4 2.49,129.19 327.54,1215.41 374.47,1375.88 100.01,342 136.23,637.98 209.1,994.73 86.18,421.87 28.62,682.02 84.89,803.39 46.67,100.66 44.64,136.17 75.59,217.22 194.62,106.11 347.6,-61.34 360.73,234.31 -176.47,81.83 -475.71,159.08 -681.42,55.05 -242.74,-122.74 -187.86,-92.5 -282.87,-34.3 -54.64,33.47 54.44,10.41 -76.54,35.46 -108.63,20.78 -236.36,-10.96 -287.58,-85.19 -138.53,-200.72 -148.67,-688.02 -179.15,-914.88 -24.08,-179.23 -108.25,-294.09 -131.84,-446.38 -55.88,-360.66 53.59,-181.08 -158.75,-426.52 -88.88,121.35 -199.83,796.32 -237.77,951.59 -42.37,173.35 -51.94,344.51 -91.54,507.18 -38.88,159.74 -123.97,276.58 -171.51,413.72 79.47,71.18 157.2,117.98 162.48,280.48 -109.33,58.86 -283.91,69.02 -420.24,53.8 -142.3,-15.9 -180.21,-80.01 -262.86,-158.31 -4.07,-3.86 -9.81,-9.02 -14.13,-12.6 -115.72,-96.16 -49.88,22.92 -129.4,-130.42l-37.77 -64.93c-3.01,-4.51 -8.45,-9.91 -11.44,-14.49 -95.99,-146.84 -1.32,-1178.49 4.04,-1397.96 6.86,-280.02 -55.93,-572.83 158.41,-760.36 -49.28,-215.24 -103.24,-314.75 -101.44,-598.85 1.48,-232.11 119.58,-495.51 115.61,-525.06 -5.43,-2.63 -14.11,-4.24 -17.51,-4.52 -90.02,-7.18 -142.46,68.42 -232.26,77.57 -301.63,30.71 -195.36,-618.01 -195.89,-804.22 -142.38,-79.02 -139.89,22.12 -213.81,-160.52 -49.15,40.53 -74.68,59.48 -161.43,62.61 -48.81,-146.92 9.76,-194.29 -87.32,-305.01 -242.57,-276.65 -150.95,-540.02 -56.34,-868.43 51.22,-177.77 -63.86,-402.1 -123.17,-572.67l-10.02 -32.7c-54.92,-179.15 21.94,-160.69 -13.09,-299.13 -2.25,-8.86 -48.7,-152.97 -16.86,-134.9 61.6,34.94 112.6,146.88 196.95,93.72 47.06,-29.66 42.56,-22.38 18.68,-63.4 -38.18,-65.59 -120.14,-51.84 -179.9,-136.23 -29.75,-42 -32.02,-103.19 -26.32,-77.66 24.19,108.25 118.52,170.96 225.74,125.89 64.29,-27.02 81.34,-37.92 152.92,-56.23 17.01,31.41 36.44,80.15 52.27,114.24 71.43,-3.02 105.93,-1.86 175.66,4 248.44,20.9 148.63,-109.97 326.63,-166.31l-64.05 -56.12c-3.02,-2.21 -29.84,-15.15 -52.39,-30.45 39.69,-131.94 110.65,-270.9 163.46,-392.55 60.95,-140.41 98.19,-264.79 152.98,-397.52 98.75,-239.21 74.02,-179.56 90.49,-463.61 32.24,-556.36 650.18,-571.43 1010.88,-314.73 152.51,108.54 156.32,153.93 271.56,277.69 83.24,89.38 215.84,187.3 218.06,321.58 -135.77,93.14 -335.11,91.09 -473.62,158.95 10.34,72.08 21.08,81.82 35.2,135.42 23.26,88.31 -54.17,178.83 -42.85,334.61 84.48,50.97 58.89,-10.5 143.09,52.68 -30.85,88.09 -72.16,131.53 -107.97,209.08 39.67,75.11 74.04,92.86 126.38,195.04 37.83,73.83 64.16,130.69 112.57,201.23 26.5,38.62 38.17,49.88 61.86,93.21 54.96,100.57 139.68,177.25 191.79,282.68 381.02,-39.67 284.15,-144.73 642.49,35.83 155.04,78.13 260.59,124.31 329.67,269.57l50.16 107.64c1.38,-3.84 5.65,12.03 9.38,17.48 184.38,-61.65 493.81,-274.93 417.81,234.76 -127.7,81.87 -164.67,61.77 -338.56,74.64 -145.93,10.81 -524.15,114.8 -665.92,174.78 -81.67,34.55 -53.91,41.94 -136.77,68.13 -69.65,22.02 -171.9,3.3 -183.04,97.81l25.51 175.52zm7.42 282.78c-6.76,-188.6 -64.68,-178.81 -93.43,-191.57 -24.61,44.14 -33.71,104.65 -19.66,178.07 15.11,78.96 21.16,70.13 98.06,87.68 10.73,-25.57 17.93,6.84 15.03,-74.18zm-1918.79 981.97l-33.64 -694.48 -234.5 35.72c16.4,252.15 -20.35,540.44 41.5,746.1 135.18,-4.49 134.02,-7.65 226.65,-87.34zm-668.58 -1159.33c73.55,-27.75 31.36,-18.85 105.95,-33.82l-159.3 -544.76c-26.41,-84.65 -24.08,-92.97 -67.09,-146.13 -72.83,257.9 -139,509.67 6.86,757.91 114.04,-2.69 7.51,6.81 113.57,-33.2z"/>
 </g>
</svg>
