<?xml version="1.0" encoding="UTF-8"?>
<!DOCTYPE svg PUBLIC "-//W3C//DTD SVG 1.1//EN" "http://www.w3.org/Graphics/SVG/1.1/DTD/svg11.dtd">
<!-- Creator: CorelDRAW 2019 (64-Bit) -->
<svg xmlns="http://www.w3.org/2000/svg" xml:space="preserve" width="2.55994in" height="5.662in" version="1.1" style="shape-rendering:geometricPrecision; text-rendering:geometricPrecision; image-rendering:optimizeQuality; fill-rule:evenodd; clip-rule:evenodd"
viewBox="0 0 66.86 147.87"
 xmlns:xlink="http://www.w3.org/1999/xlink">
 <defs>
  <style type="text/css">
   <![CDATA[
    .fil0 {fill:#1C1B17}
   ]]>
  </style>
 </defs>
 <g id="Слой_x0020_1">
  <metadata id="CorelCorpID_0Corel-Layer"/>
  <path class="fil0" d="M66.86 147.87l0 -147.87 -49.16 0c0,9.24 -5.9,13.96 -17.7,13.96l0 40.7 13.76 -0.79 0 93.99 53.09 0zm-31.86 -112.19c2.24,4.14 19.06,90.5 17.88,101.52 -3.41,2.12 -6.47,3.69 -11.38,1.51 0.48,-2.24 1.41,-3.35 1.82,-6.49 0.85,-6.56 0.01,-14.58 -0.77,-21.11 -2.42,-20.48 -9.57,-53.38 -13.8,-73.83l6.25 -1.59zm10.69 -3.61c-12.32,1.51 -16.83,3.89 -25.86,6.15 -1.02,-3.88 -3.31,-10.34 -3.05,-14.89 13.4,-0.21 23.43,-7.08 37.97,-5.16 -2.67,1.65 -4.15,0.34 -10.56,4.54l1.5 9.36zm-27.13 6.64c-1.06,1.14 -1.69,1.33 -2.56,2.35 -1.14,1.34 -1,1.73 -2.28,3.06 -5.84,-3.33 -8.53,-13.98 -5.5,-22.46l7.1 2.07c0.42,6.06 2.15,9.93 3.25,14.98z"/>
 </g>
</svg>
