<?xml version="1.0" encoding="UTF-8"?>
<!DOCTYPE svg PUBLIC "-//W3C//DTD SVG 1.1//EN" "http://www.w3.org/Graphics/SVG/1.1/DTD/svg11.dtd">
<!-- Creator: CorelDRAW 2019 (64-Bit) -->
<svg xmlns="http://www.w3.org/2000/svg" xml:space="preserve" width="4.6832in" height="5.78247in" version="1.1" style="shape-rendering:geometricPrecision; text-rendering:geometricPrecision; image-rendering:optimizeQuality; fill-rule:evenodd; clip-rule:evenodd"
viewBox="0 0 239.77 296.05"
 xmlns:xlink="http://www.w3.org/1999/xlink">
 <defs>
  <style type="text/css">
   <![CDATA[
    .fil0 {fill:#1C1B17}
   ]]>
  </style>
 </defs>
 <g id="Слой_x0020_1">
  <metadata id="CorelCorpID_0Corel-Layer"/>
  <path class="fil0" d="M117.19 222.81l83.65 -60.91c25.83,-18.89 38.93,-42.02 38.93,-69.39 0,-27.37 -12.34,-49.34 -37.01,-66.69 -24.28,-17.35 -54.35,-25.83 -90.2,-25.83 -52.04,0 -89.82,19.27 -112.56,57.82l82.88 35.85c7.32,-9.64 16.58,-14.65 27.37,-14.65 11.56,0 16.96,5.4 16.96,15.81 0,8.87 -5.01,16.96 -15.03,24.28l-87.5 65.92c-15.42,11.56 -23.13,29.3 -23.13,52.81l0 58.21 235.14 0 0 -73.24 -119.5 0zm-1.05 -33.42c9.41,-7.44 9.09,-9.53 10.86,-10.89 3.08,1.06 6.99,4.58 7.29,7.77 -3.48,2.92 -2.44,0.04 -6.15,4.86l-9.37 11.21c-2.6,4.55 1.64,2.8 -1.87,6.7 -3.43,2.57 -14.12,-8.08 -13.61,-13 4.9,-3.48 2.74,0.59 7.27,-1.91 1.23,-0.68 4.07,-3.54 5.59,-4.74zm-14.8 13.66l8.57 9.24c-8.62,5.93 -3.7,7.9 6.51,18.2 3.32,3.36 14.03,12.94 15.73,17.58 3.59,9.81 -2.93,18.97 -10.81,20.93 -10.55,2.62 -17.26,-5.67 -21.86,-10.45l-57.97 -58.47c-4.67,-3.23 -7.93,1.07 -3.26,5.94l50.08 50c4.27,4.27 13.57,10.84 13.42,20.33 -0.16,9.45 -8.08,16.79 -18.26,15.33 -7.5,-1.07 -14.89,-10.36 -18.96,-14.43 -5.77,-5.78 -10.9,-10.92 -16.67,-16.68 -4.84,-4.83 -14.35,-16.74 -17.67,-13.5 -3.99,6.61 13.03,10.8 13.34,24.13 0.2,8.51 -9.68,18.2 -15.72,22.38 -2.85,-1.72 -7.06,-5.8 -8.58,-8.69 2.23,-2.62 11.28,-10.24 11.55,-12.99 0.31,-3.33 -8.41,-10.07 -10.69,-12.63 -9.53,-10.66 0.48,-29.01 16.01,-25.39 6,1.4 10.54,7.61 13.84,10.93l24.36 24.38c4.71,4.68 10.02,12.14 13.69,9.23 3.26,-4.37 -3.87,-8.79 -6.44,-11.36l-51.3 -51.3c-10.58,-10.55 -8.27,-21.86 -0.02,-26.78 13.18,-7.86 21.83,3.56 27.22,8.97l50.88 50.88c5.19,5.4 7.58,9.96 10.85,6.89 3.55,-3.32 -3.03,-7.71 -8.25,-12.92 -8.71,-8.67 -19.03,-16.03 -18.27,-26.32 0.49,-6.61 5.44,-11.29 8.67,-13.46z"/>
 </g>
</svg>
