<?xml version="1.0" encoding="UTF-8"?>
<!DOCTYPE svg PUBLIC "-//W3C//DTD SVG 1.1//EN" "http://www.w3.org/Graphics/SVG/1.1/DTD/svg11.dtd">
<!-- Creator: CorelDRAW 2019 (64-Bit) -->
<svg xmlns="http://www.w3.org/2000/svg" xml:space="preserve" width="5.14249in" height="5.95566in" version="1.1" style="shape-rendering:geometricPrecision; text-rendering:geometricPrecision; image-rendering:optimizeQuality; fill-rule:evenodd; clip-rule:evenodd"
viewBox="0 0 325.67 377.17"
 xmlns:xlink="http://www.w3.org/1999/xlink">
 <defs>
  <style type="text/css">
   <![CDATA[
    .fil0 {fill:#1C1B17}
   ]]>
  </style>
 </defs>
 <g id="Слой_x0020_1">
  <metadata id="CorelCorpID_0Corel-Layer"/>
  <path class="fil0" d="M280.85 345.7c30.04,-20.5 44.82,-47.68 44.82,-81.06 0,-39.58 -16.69,-67.23 -49.59,-82.97 26.7,-19.55 40.05,-47.68 40.05,-83.44 0,-27.18 -13.35,-50.07 -40.05,-69.14 -26.7,-19.55 -62.46,-29.09 -107.28,-29.09 -78.2,0 -129.22,21.46 -152.58,63.89l93.93 52.45c6.2,-14.3 23.36,-21.46 51.5,-21.46 21.46,0 32.42,8.11 32.42,23.84 0,13.35 -7.15,20.03 -21.93,20.03l-50.07 0 0 90.6 50.07 0c14.78,0 22.41,8.58 22.41,25.27 0,18.6 -10.97,27.65 -33.38,27.65 -30.99,0 -51.97,-12.87 -62.46,-38.62l-98.7 42.91c34.33,60.56 90.6,90.6 168.8,90.6 44.82,0 82.01,-10.49 112.05,-31.47zm-60.82 -151.29c-1.94,22.12 6.89,29.91 -18.74,29.82 -29.27,-0.11 -31.12,3.36 -31.99,-17.33l-29.21 7.53c-0,0 -9.43,12.81 -9.62,-2.46 -0.15,-12.25 -0.48,-58.72 0.7,-64.04 7.52,-2.08 6.46,0.97 6.88,1.68 2.42,4.1 -2.03,3.12 6.34,5.04 6.07,1.39 11.49,2.8 17.31,4.27l70.7 17.78c20.59,5.15 15.99,4.45 36.87,1.43l0.24 11.63c-10.71,-1.64 -14.65,-4.67 -25.4,-1.87 -5.23,1.36 -20.4,4.47 -24.09,6.52zm-45.99 23.94c6.16,2.4 35.05,2.5 40.84,0.04 1.36,-6.31 0.81,-15.9 0.79,-23.11l-42.09 10.4 0.47 12.67z"/>
 </g>
</svg>
