<?xml version="1.0" encoding="UTF-8"?>
<!DOCTYPE svg PUBLIC "-//W3C//DTD SVG 1.1//EN" "http://www.w3.org/Graphics/SVG/1.1/DTD/svg11.dtd">
<!-- Creator: CorelDRAW 2019 (64-Bit) -->
<svg xmlns="http://www.w3.org/2000/svg" xml:space="preserve" width="5.11988in" height="5.662in" version="1.1" style="shape-rendering:geometricPrecision; text-rendering:geometricPrecision; image-rendering:optimizeQuality; fill-rule:evenodd; clip-rule:evenodd"
viewBox="0 0 375.77 415.56"
 xmlns:xlink="http://www.w3.org/1999/xlink">
 <defs>
  <style type="text/css">
   <![CDATA[
    .fil0 {fill:#1C1B17}
   ]]>
  </style>
 </defs>
 <g id="Слой_x0020_1">
  <metadata id="CorelCorpID_0Corel-Layer"/>
  <path class="fil0" d="M375.77 415.56l0 -266.36 -149.2 0 0 94.5 -57.47 0 104.44 -243.7 -157.49 0 -116.05 271.33 0 77.37 149.2 0 77.37 0 0 66.87 149.2 0zm-201.57 -293.83l12.64 41.16c2.51,11.98 -3.08,4.5 -2.35,15.92 9.38,-1.68 5.61,2.22 3.74,7.03 -0.86,2.22 1.09,1.26 -2.19,2.85 -2.84,1.38 -5.83,-0.68 -7.45,-2.4 -2.89,-3.06 -1.95,-5.62 -1.89,-10.03 -7.94,-2.07 -6.35,-3.1 -10.56,-7.43l-0.98 3.14c2,2.27 4.97,3.76 7.01,6.41 3.82,4.95 0.69,7.07 -0.4,11.4 -1.44,5.74 1.84,19.84 1.87,26.75 -9.29,8.83 -6,-4.16 -11.56,19.78 -3.54,15.22 -9.06,19.66 -5.74,25.1 3.79,4.75 14.33,0.63 23.08,13.11 3.64,5.18 4.82,4.81 9.18,8.47 5.89,4.95 6.17,7.52 8.79,9.7 3.58,2.98 8.81,2.79 9.46,7.99 1.17,9.35 -2.7,4.94 -3.43,14.86 -0.37,5.09 -2.16,9.78 -4.31,13.98 -2.27,4.43 -4.2,8.07 -11.29,7.01 -6.14,-5.19 -2.02,-8.49 -1.39,-16.64 -0.18,-0.14 -0.49,-0.54 -0.58,-0.37l-1.62 -1.12c-1.61,-1.34 -0.66,-0.26 -1.91,-2.26 -3.85,-6.19 -8.45,-7.6 -14.19,-11.03 -3.44,-2.06 -7.47,-4.73 -9.98,-6.82 -4.95,-4.13 -5.9,-6.78 -8.23,-8.7 0.5,6.97 2.63,14.68 3.16,22 0.61,8.36 -0.8,15.67 -0.82,23.9 -3.75,1.02 -5.13,0.51 -6.19,3.08 -1.26,3.04 0.15,5.17 -2.71,7.64 -5.2,1.44 -38.74,-1.42 -42.8,-3.72 -0.86,-4.99 0.1,-7.27 2.55,-9.69l14.74 -0.07c3.64,-6.47 0.82,-11.56 -0.59,-22.19 -2.32,-17.52 -2.63,-10.42 -4.79,-22.01 -5.33,-28.63 -1.57,-17.06 -1.5,-35.03 0.01,-2.6 0.23,-4.13 0.59,-6.67 0.5,-3.49 0.65,-3.55 -0.27,-4.94 -2.49,4.96 -0.55,5.9 -6.81,8.24 -3.84,1.44 -4.58,-1.35 -5.45,-1.6 -0.79,-0.23 -2.76,1.52 -2.72,-1.76 0.07,-5.39 -1.19,-2.11 -3.35,-2.46 -2.02,-0.33 1.7,-3.95 0.63,-6.41 -0.8,-1.85 -1.02,-1.74 1.37,-3.23 7.09,-4.43 6.32,-1.46 6.19,-9.83 -0.09,-5.51 -0.27,-11 -0.42,-16.5 4.21,-1.48 13.16,-13.56 12.24,-17.04 -1.28,-4.89 -9.52,-0.75 -10.16,-20.21 -0.27,-8.3 -2.33,-6.52 -9.79,-21.16 -2.58,-5.06 -0.61,-11.23 0.01,-17.75 -7.38,1.18 -7.36,-0.05 -11.97,4.48 -2.47,2.43 -6.46,5.37 -10.08,6.15 -3.32,-2.26 -5.82,-7.34 -5.78,-12.02l12.85 -2.61c-0.75,-19.01 7.62,-5.31 15.94,-8.77 1.37,-0.57 7.03,-5.1 7.19,-10.42 0.1,-3.14 -0.74,-3.85 -1.08,-7.01 -0.13,-1.22 -0.09,-2.76 -0.4,-3.83 -2.1,-7.35 -4.44,2.16 -1.06,-18.91 3.32,-1.86 2.6,0.19 5.05,-3.06 2.5,-3.32 0.47,-1.83 4.33,-4.13 6.79,-4.04 1.8,-5.19 11.91,-2.94 9.83,2.19 8.83,4.73 13.53,11.81 2.48,3.74 1.68,1.43 5.22,3.94 1.06,8.79 -1.68,5.31 -4.09,11.47 2.06,3.78 12.8,17.27 18.66,16.67 3.9,-0.4 5.33,-5.88 13.96,-2.83 4.7,1.66 5.08,5.92 6.96,11.53z"/>
 </g>
</svg>
