<?xml version="1.0" encoding="UTF-8"?>
<!DOCTYPE svg PUBLIC "-//W3C//DTD SVG 1.1//EN" "http://www.w3.org/Graphics/SVG/1.1/DTD/svg11.dtd">
<!-- Creator: CorelDRAW 2019 (64-Bit) -->
<svg xmlns="http://www.w3.org/2000/svg" xml:space="preserve" width="5.2178in" height="5.82765in" version="1.1" style="shape-rendering:geometricPrecision; text-rendering:geometricPrecision; image-rendering:optimizeQuality; fill-rule:evenodd; clip-rule:evenodd"
viewBox="0 0 464.96 519.3"
 xmlns:xlink="http://www.w3.org/1999/xlink">
 <defs>
  <style type="text/css">
   <![CDATA[
    .fil0 {fill:#1C1B17}
   ]]>
  </style>
 </defs>
 <g id="Слой_x0020_1">
  <metadata id="CorelCorpID_0Corel-Layer"/>
  <path class="fil0" d="M405.25 466.97c39.58,-35.56 59.71,-77.83 59.71,-126.81 0,-113.39 -74.47,-169.75 -223.42,-169.75l-27.51 0 0 -42.94 221.41 0 0 -127.48 -402.56 0 0 297.89 208.66 0c21.47,0 32.2,14.09 32.2,42.94 -0.67,30.19 -16.1,44.95 -46.97,44.95 -43.61,0 -73.13,-18.11 -87.89,-54.35l-138.88 60.38c48.31,85.21 129.49,127.48 244.22,127.48 67.76,0 121.44,-17.44 161.02,-52.33zm-257.41 -281.62c-4.79,2.61 -59.03,3.48 -65.73,-1.07 -10.6,-7.2 -8.98,-23.31 -4.52,-35.59 14.21,4.43 20.19,9.2 38.17,9.25 19.21,0.06 23.42,-5.22 37.7,-8.87 3.18,3.99 3.2,6.79 5.39,10.16 18.96,-8.24 38.11,-32 41.97,-58.44 -15.5,-16.66 -2.54,-26.9 4.07,-28.18 13.61,-2.63 23.97,12.69 15.1,23.33 -6.88,8.26 -5.22,0.42 -8.37,14.54 -1.36,6.09 -3.44,11.68 -5.94,16.95 -5.36,11.28 -12.04,20.5 -19.52,27.59 -3.63,3.44 -7.59,7.07 -12.61,10.28 -4.16,2.66 -10.52,5.51 -14.66,8.21 -4.9,3.19 -5.29,8.69 -11.04,11.83zm39.33 -118.21c7.56,43 -23.06,77.06 -57.97,83.56 -42.42,7.9 -77.64,-22.2 -84.19,-57.24 -8.33,-44.55 22.66,-78.2 58.34,-84.85 43.3,-8.07 77.64,23.42 83.82,58.53zm-66.46 29.28c21.42,-5.48 13.24,-39.29 -8.51,-33.54 -23.91,6.33 -13.56,39.18 8.51,33.54z"/>
 </g>
</svg>
