<?xml version="1.0" encoding="UTF-8"?>
<!DOCTYPE svg PUBLIC "-//W3C//DTD SVG 1.1//EN" "http://www.w3.org/Graphics/SVG/1.1/DTD/svg11.dtd">
<!-- Creator: CorelDRAW 2019 (64-Bit) -->
<svg xmlns="http://www.w3.org/2000/svg" xml:space="preserve" width="5.23285in" height="5.94812in" version="1.1" style="shape-rendering:geometricPrecision; text-rendering:geometricPrecision; image-rendering:optimizeQuality; fill-rule:evenodd; clip-rule:evenodd"
viewBox="0 0 582.55 662.18"
 xmlns:xlink="http://www.w3.org/1999/xlink">
 <defs>
  <style type="text/css">
   <![CDATA[
    .fil0 {fill:#1C1B17}
   ]]>
  </style>
 </defs>
 <g id="Слой_x0020_1">
  <metadata id="CorelCorpID_0Corel-Layer"/>
  <path class="fil0" d="M510.47 597.64c47.78,-43.59 72.09,-97.23 72.09,-160.1 0,-62.87 -21.79,-114 -65.38,-151.72 -43.58,-38.56 -97.23,-57.84 -160.94,-57.84 -34.36,0.84 -76.27,15.09 -126.57,42.75 0,-34.37 6.7,-62.03 20.96,-84.66 14.25,-22.63 33.53,-33.53 57.84,-33.53 36.88,0 64.54,14.25 82.14,43.58l171.83 -61.19c-24.31,-39.4 -58.68,-72.09 -102.26,-97.23 -45.26,-25.15 -96.39,-37.72 -155.91,-37.72 -91.37,0 -165.13,25.98 -221.29,77.95 -55.32,52.81 -82.98,133.27 -82.98,241.4 0,108.13 28.5,192.79 86.34,253.14 57,59.51 129.92,89.69 218.77,89.69 88.85,0 157.58,-21.79 205.36,-64.54zm-115.73 -259.31c31.06,43.92 35.25,96.33 11.44,145 -6.32,12.91 -30.97,52.84 -32.47,57.63 -1.74,-20.92 1,-30.82 -11.71,-45.26 -33.75,-38.36 -95.3,-19.72 -92.92,42.37 -12.04,-11.29 -28.97,-46.19 -36.13,-61.23 -21.51,-45.21 -11.94,-113.04 20.19,-144.05 31.51,-30.4 117.94,-27.92 141.6,5.54zm47.21 167.43c-2.48,10.81 -29.24,55.49 -36.53,64.45l-31.06 -16.99c6.14,-14.75 26.13,-39.45 36.35,-65.56l31.23 18.1zm-167.59 21.27c5.67,-64.21 95.71,-51.9 93.42,0.88 -3.06,-13.41 -25.35,-26.96 -44.94,-27.5 -26.24,-0.71 -37.01,13.9 -48.48,26.61zm32.68 -18.99c29.19,-9.9 53.37,10.49 59.58,32.23 7.63,26.73 -9.41,49.98 -30.53,57.02 -57.91,19.3 -89.74,-68.68 -29.05,-89.25zm-74.99 -19.88c5.19,14.76 27.14,51.78 35.49,62.29 -1.25,1.57 -0.98,1.75 -3.33,3.76l-27.05 15.59c-4.45,-4 -34.9,-54.48 -36.26,-63.99l31.16 -17.65zm215.39 31.6c5.01,7.51 3.89,5.43 -2.25,15.51 -18.07,29.64 -14.44,36.29 -27.21,31.62 0.26,-2.17 19.61,-43.48 29.46,-47.13zm-249.22 0.29c5.86,8.07 25.03,39.44 25.75,47.8 -11.04,1.62 -7.08,2.67 -13.23,-9.11 -13.02,-24.97 -26.26,-33.78 -12.53,-38.69zm99.18 -98.65c64.31,-24.43 98.09,62.32 106.15,12.18 3.16,-19.64 -5.89,-47.8 -12.72,-62.7 -8.78,-19.16 -17.75,-32.1 -41.29,-36.68 -18.87,-3.68 -52.93,-3.7 -69.98,4.17 -25.13,11.59 -51.26,74.1 -34.81,108.41 25.5,4.14 25.98,-15.24 52.65,-25.37z"/>
 </g>
</svg>
