<?xml version="1.0" encoding="UTF-8"?>
<!DOCTYPE svg PUBLIC "-//W3C//DTD SVG 1.1//EN" "http://www.w3.org/Graphics/SVG/1.1/DTD/svg11.dtd">
<!-- Creator: CorelDRAW 2019 (64-Bit) -->
<svg xmlns="http://www.w3.org/2000/svg" xml:space="preserve" width="4.36696in" height="5.662in" version="1.1" style="shape-rendering:geometricPrecision; text-rendering:geometricPrecision; image-rendering:optimizeQuality; fill-rule:evenodd; clip-rule:evenodd"
viewBox="0 0 531.56 689.19"
 xmlns:xlink="http://www.w3.org/1999/xlink">
 <defs>
  <style type="text/css">
   <![CDATA[
    .fil0 {fill:#1C1B17}
   ]]>
  </style>
 </defs>
 <g id="Слой_x0020_1">
  <metadata id="CorelCorpID_0Corel-Layer"/>
  <path class="fil0" d="M384.4 557.17l147.16 -428.86 0 -128.31 -247.45 0 -284.11 0 0 174.13 254.78 0 -176.88 515.06 261.2 0 23.89 -69.61c-6.5,-0.86 -14.31,-3.05 -22.31,-3.87 -2.67,12.06 -0.71,11.75 -13.69,11.43 2.92,26.96 -19.63,15.5 -23.45,17.03l-0.12 0.12c-3.32,4.1 -5.14,5.83 -10.42,7.84 -10.61,4.03 -29.98,2.8 -40.09,-1.05 -2.33,-0.89 -3.5,-1.12 -4.6,-3.07 -1.39,-2.45 -1.59,-4.64 -0.48,-7.25 5.85,-13.83 29.21,-7.99 33.1,-26.64 1.5,-9.14 5.51,-11.21 6.02,-16.32 0.68,-6.92 -1.53,-10.86 0.14,-21.14l4.25 -62.86c2.93,-37.7 -4.75,-45.94 2.92,-82.23 1.57,-7.42 -5.22,-68.98 -5.72,-84.39 -20.14,-2.82 -7.64,-4.64 -13.34,-12.26 -9.98,8.4 -0.66,17.01 -7.96,19.26l-4.83 1.28c-14.24,5.42 -7.2,45.63 -11.21,48.58 -6.48,2.18 -9.6,-3.73 -12.94,-6.86l-1.02 1c-1.72,1.42 -1.56,3.02 -3.89,0 -9.84,-12.74 -0.55,-40.08 4.22,-52.96 6.08,-16.42 -0.83,-9.26 5.39,-16.83 4.81,-5.86 15.42,-26.98 19.41,-32.88 21.71,-32.08 0.36,-19.51 16.86,-30.44 -0.05,-6.97 -0.48,-13.21 -0.34,-20.64 0.13,-6.95 1.23,-2.42 -1.91,-6.45l-4.75 -5.56c-8.45,3.24 -20.71,12.96 -28.84,12.01 -2.06,-5.23 -2.48,-9.58 -1.12,-15.54 3.47,-2.03 5.95,-3.05 11.63,-3.51 -1.4,-3.37 -1.58,-3.58 -1.81,-6.65 -0.69,-9.3 3.8,-5.76 10.04,-8.48 6.68,-2.91 7.79,-8.11 26.89,-5.08 2.49,-2.98 4.78,-5.55 8.03,-9.35l9 -8.34c-1.71,-4.08 -5.06,-9.65 -6.39,-14.09 -3.09,-10.31 1.98,-12.79 0.99,-15.59 -3.29,-7.65 -4.27,-1.47 -7.43,-9.04 -1.28,-3.07 -1.51,-9.89 -2.55,-14.07 -0.78,-3.14 -2.83,-9.22 -4.19,-12.19 -3.54,-7.73 -1.99,-4.36 -10.06,-6.14 1.01,-6.86 6.6,-11.85 10.14,-16 14.97,-17.57 22.34,-34.91 43.73,-23.15 38.34,21.09 26.5,33.85 31.5,65.71l-9.81 3.4c-0.51,11.44 -4.62,23.4 6.64,17.42l40 -24.05c0.5,-17.68 -12.86,-21.33 -14.09,-34.35 4.62,-5.55 14.67,-14.79 25.21,-10.9 3.95,3.12 1.61,21.25 9.48,39.99 1.45,3.46 4.15,37.81 -1.16,41.92 -1.59,-1.86 -5.35,-17.68 -6.89,-21.86 -5.32,0.96 -7.29,2.9 -11.39,5.4 -10.74,6.54 -26.17,5 -34.24,16.59 33.44,11.22 32.92,46.44 29.69,80.32 -3.38,35.44 -7.2,67.42 -8.86,103.34l-6.76 3.39c0.28,19.2 -3.18,41.32 -5.53,60.37 -1.24,10.06 -2.42,18.98 -3.77,29.04 -3.21,23.96 7.77,70.6 14.09,104.21z"/>
 </g>
</svg>
