<?xml version="1.0" encoding="UTF-8"?>
<!DOCTYPE svg PUBLIC "-//W3C//DTD SVG 1.1//EN" "http://www.w3.org/Graphics/SVG/1.1/DTD/svg11.dtd">
<!-- Creator: CorelDRAW 2019 (64-Bit) -->
<svg xmlns="http://www.w3.org/2000/svg" xml:space="preserve" width="5.14249in" height="5.95566in" version="1.1" style="shape-rendering:geometricPrecision; text-rendering:geometricPrecision; image-rendering:optimizeQuality; fill-rule:evenodd; clip-rule:evenodd"
viewBox="0 0 1011.93 1171.94"
 xmlns:xlink="http://www.w3.org/1999/xlink">
 <defs>
  <style type="text/css">
   <![CDATA[
    .fil0 {fill:#1C1B17}
   ]]>
  </style>
 </defs>
 <g id="Слой_x0020_1">
  <metadata id="CorelCorpID_0Corel-Layer"/>
  <path class="fil0" d="M1011.93 822.29c0,-122.97 -51.86,-208.91 -154.08,-257.8 82.97,-60.75 124.45,-148.16 124.45,-259.28 0,-85.93 -42.97,-158.53 -127.42,-217.8 -84.45,-57.78 -201.5,-87.41 -349.66,-87.41 -146.68,0 -263.72,29.63 -348.17,88.9 -84.45,59.26 -127.42,131.86 -127.42,216.31 0,111.12 41.48,198.53 124.45,259.28 -0.72,0.34 -1.43,0.69 -2.14,1.03 25.62,3.55 77.94,28.15 93,28.81 11.07,0.48 3.48,-4.01 2.46,-10.14 -4.65,-27.92 2.29,-66.24 5.93,-92.47 17.04,-122.44 20.24,-90.03 52.63,-129.38l25.21 -34.59c7.64,-9.8 25.84,-15.75 39.95,-19.71l43.82 -15.98c-0.48,-0.62 -1.21,-1.37 -1.54,-1.77l-5.69 -7.07c-3.84,-6.09 -6.42,-11.21 -8.43,-18.15 -3.59,-13.33 -2.72,-24.46 -5.32,-37.04 -3.38,-16.38 -13.17,-12.59 0.64,-27.17 8.23,4.56 10.66,6.25 19.81,9.54 3.29,-23.17 3.22,-36.66 19.05,-55.59 12.73,-14.28 28.85,-18.17 46.9,-28.8 10.52,3.31 39.04,16.57 49.2,26.47 18.24,18.11 18.77,28.82 20.85,53.49 8.34,-1.48 13,-6.12 19.94,-10.52 0.8,1.11 7.4,9.34 7.42,9.42 0.25,0.94 -1.45,6.45 -2.06,7.79 -3.36,7.32 -4.13,12.38 -5,20.38 -2.32,21.43 -9.74,33.14 -16.55,52.41l9.6 9.41c43.48,37.73 66.86,29.93 106.56,78.89 4.13,5.09 12.41,13.98 16.2,16.84 10.97,8.29 13.38,3.17 17.57,15.28 1.73,4.99 9.19,53.43 9.51,59.55 0.87,17.09 -12.79,34.48 -21.08,44.18 -9.06,10.6 -37.99,18.86 -54.38,10.22 -9.27,-4.89 -5.99,-7.47 -20.96,-12.26 -9.56,-3.06 -16.49,-5.55 -25.87,-7.18 1.03,37.09 11.16,17.51 18.53,35.58 5.71,14.01 -6.68,22.14 -5.46,39.06 14.05,10.63 12.33,-8.41 16.48,33.41 1.29,12.96 7.82,26.75 11.12,39.08 -7.02,7.86 -15.23,15.49 -25.64,21.31l6.47 21.27 -13.97 7.17c3.12,14.76 10.91,65.85 7.43,81.8 -2.54,11.67 -2.98,6.53 -12.28,15.07 1.66,40.32 -4.84,60.86 -18.13,92.59 -24,57.31 -14.94,51.99 -38.62,70.84 2.02,23.48 26.17,56.14 0.43,76.95 -46.38,19.76 -45,-53.97 -54.46,-84.77 -7.97,11.23 -8.3,40.39 -9.65,56.72 -0.77,9.35 0.09,22.59 -1.88,30.72 -2.46,10.14 -7.44,12.69 -10.54,19.36 -7.9,17.01 0.18,31.78 -21.82,40.65 -21.21,8.55 -34.97,1.16 -48.38,-9.27 -3.8,-27.44 19.15,-55.98 27.24,-80.79 3.63,-11.14 2.89,-11.93 2.23,-24.5 -2.45,-46.81 -8.77,-12.42 -11.92,-41.91 -1.45,-13.63 -0.37,-10.53 -3.52,-23.13 -3.96,-15.87 1.72,-68.34 -4.23,-91.39 -4.86,-18.8 -12.37,-22.07 -4.16,-38.05 9.63,-18.74 1.57,-21.73 3.16,-44.33 -31.23,-2.69 -28.08,1.95 -32.69,-63.96l-12.27 -8.4c2.33,-11.96 4.56,-7.39 6.05,-21.98 -16.32,-5.08 -35.75,-16.22 -45.71,-11.89 -0.04,0.02 -11.65,15.37 -45.86,-0.17 -30.35,-13.78 4.55,-25.55 -77.73,-42.29 -13.01,-2.65 -42.92,-11.41 -50.38,-24.12 -93.69,49.84 -141.18,133.6 -141.18,251.29 0,105.19 47.41,189.64 142.23,253.35 94.82,63.71 216.31,96.3 362.99,96.3 148.16,0 269.65,-32.6 364.47,-96.3 94.82,-63.71 142.23,-148.16 142.23,-253.35zm-652.56 -197.24c-1.93,-6.06 -2.66,-13.35 -5.71,-21.15 -4.38,-11.22 -18.42,-25.57 1.04,-51.21 7.89,1.76 23.4,5.82 21.83,-5.57 -2.47,-17.86 -15.05,-11.83 -29.28,-23.61 6.62,-37.61 -5.09,-12.61 -6.93,-34.72 -0.72,-8.62 3.27,-11.57 5.15,-18.86 1.57,-6.11 1.75,-4.31 0.74,-10.51 -1.52,-9.35 1.07,-2.05 -3.47,-7.57l-1.29 4.99c-0.18,0.8 -0.39,1.68 -0.58,2.57 -0.2,0.92 -0.32,1.69 -0.52,2.65 -0.9,4.24 -1.12,6.07 -2.24,10.58 -9.59,38.73 -22.93,60.87 -23.35,82.02 -0.9,44.64 -21.65,12.38 -5.35,48.31 6.7,14.76 5.12,17.57 49.98,22.09z"/>
 </g>
</svg>
