<?xml version="1.0" encoding="UTF-8"?>
<!DOCTYPE svg PUBLIC "-//W3C//DTD SVG 1.1//EN" "http://www.w3.org/Graphics/SVG/1.1/DTD/svg11.dtd">
<!-- Creator: CorelDRAW 2019 (64-Bit) -->
<svg xmlns="http://www.w3.org/2000/svg" xml:space="preserve" width="5.23285in" height="5.94812in" version="1.1" style="shape-rendering:geometricPrecision; text-rendering:geometricPrecision; image-rendering:optimizeQuality; fill-rule:evenodd; clip-rule:evenodd"
viewBox="0 0 1849.01 2101.75"
 xmlns:xlink="http://www.w3.org/1999/xlink">
 <defs>
  <style type="text/css">
   <![CDATA[
    .fil0 {fill:#1C1B17}
   ]]>
  </style>
 </defs>
 <g id="Слой_x0020_1">
  <metadata id="CorelCorpID_0Corel-Layer"/>
  <path class="fil0" d="M1582.97 1854.32c178.24,-167.6 266.04,-423.01 266.04,-766.2 0,-343.2 -90.45,-611.91 -274.03,-803.45 -180.91,-188.89 -412.37,-284.67 -694.37,-284.67 -282.01,0 -500.16,69.17 -651.81,204.86 -151.65,138.34 -228.8,308.61 -228.8,508.14 0,199.53 69.17,361.82 207.52,481.54 138.34,122.38 308.61,183.57 510.81,183.57 109.07,-2.66 242.09,-47.89 399.06,-135.68 0,109.08 -21.29,196.87 -63.86,268.7 -45.22,71.84 -106.42,106.42 -183.57,106.42 -117.06,0 -204.86,-45.23 -260.72,-138.35l-545.4 194.22c77.16,125.04 186.24,228.8 324.58,308.61 143.66,79.81 305.95,119.72 492.18,119.72 289.99,0 524.11,-82.47 702.36,-247.42zm-781.79 -712.55c-84.21,-19.95 -141.62,3.24 -221.03,-8.15l14.11 -64.81c-64.88,14.8 -31.96,30.48 -103.49,15.3l6.86 -60.1c-80.06,-47.68 -57.35,-101.44 -48.6,-162.06 9.02,-62.44 18.85,-126.69 31.75,-189.6 14.75,-71.89 62.92,-204.36 145.03,-169.78 29.75,12.53 32.1,25.19 50.8,46.91l7.57 7.67c34.71,-87.54 83.68,-30.41 80.28,-105.58 -33.11,-15.67 -49.28,-17.27 -75.19,-38.45 -4.19,-50.38 12.57,-53.99 30.16,-80.87 32.15,-49.1 -9.86,-131.1 130.65,-179.64 80.83,-27.93 107.05,-3.3 164.71,30.26 10.54,6.13 115,37.35 78.34,108.95 -32.62,5.41 -14.97,-6.41 -52.56,-12.64 -35.56,134.8 -15.34,65.39 8.47,181.36 17.79,86.66 73.92,24.83 14.75,293.85 27.98,-8.73 74.17,-88.48 106.41,-60.09 16.53,14.56 0.83,-3.39 -13.67,28.49 48.72,-1.02 52.82,21.74 77.29,39.35 27.9,-7.49 27.2,-13.73 44.94,-31.15 11.49,-11.28 33.56,-16.53 46.51,-6.59 18.91,14.52 18.32,43.6 16.34,64.81 -10.36,5.54 -19.17,9.03 -30.43,12.32 -36.22,10.56 -73.08,7.59 -89.2,46.89 -22.81,60.94 -28.32,18.9 -43.86,58.79 -12.2,31.34 -22.6,148.68 -128.88,174.84 -6.36,1.57 -18.26,3.36 -22.31,4.6l-15.32 6.74c-9.22,-16.15 -20.33,83.87 -21.38,88.21 -61.02,19.07 -123.67,-24.35 -189.04,-39.84zm239.04 -432.2c12.05,-20.2 52.69,-178.4 -20.34,-204.06 6.1,28.89 11.64,33.86 6.76,65.16 -7.55,2.77 -12.24,3.04 -14.95,4.04l-16.01 6.89c-1.36,0.62 -3.73,1.7 -5.42,2.86 7.11,26.56 27.51,46.42 49.96,125.11zm-451.87 309.38c-9.04,-4.95 11.39,-13.54 -32.25,-2.28 -19.33,4.99 -19.94,6.23 -29.82,15.05 11.41,13.62 9.86,10.1 24.76,20.39 39.46,-18.25 33.84,-13.88 37.31,-33.17z"/>
 </g>
</svg>
